<?xml version="1.0" encoding="UTF-8"?>
<svg width="1200pt" height="1200pt" version="1.1" viewBox="0 0 1200 1200" xmlns="http://www.w3.org/2000/svg">
 <path d="m894.5 807.83h-60.668v-45.5c0-18.168-27.332-18.168-27.332 0v57.668c0 7.668 6 13.668 13.668 13.668h74.332c18.168 0 18.168-25.836 0-25.836zm-74.332-86.5c-54.668 0-100.17 44-100.17 98.668 0 56.168 45.5 100.17 100.17 100.17s100.17-44 100.17-100.17c-0.16797-54.668-45.668-98.668-100.17-98.668zm0-27.332c69.832 0 127.5 56.168 127.5 126 0 71.332-57.668 127.5-127.5 127.5s-126-56.168-126-127.5c0-69.832 56.164-126 126-126zm295.83 86.5v80.332c-16.668 1.5-71.332 0-75.832 16.668-4.5 22.832-13.668 38-24.332 59.168-3 4.5-3 10.668 1.5 15.168l41 48.5-57.668 57.668-48.5-41c-4.5-3-10.668-4.5-15.168-1.5-4.5 4.5-31.832 21.168-60.668 25.832-4.5 1.5-9.168 6-9.168 10.668l-6 63.668h-82l-4.5-63.668c-1.5-4.5-4.5-9.168-10.668-10.668-27.332-4.5-54.668-21.168-59.168-25.832-6-3-12.168-1.5-16.668 1.5l-48.5 41-57.668-57.668 41-48.5c4.5-4.5 4.5-10.668 1.5-15.168-10.668-21.168-18.168-36.332-24.332-59.168-1.5-6-7.668-10.668-13.668-10.668l-62.168-6v-80.332l62.168-6c6 0 12.168-4.5 13.668-10.668 6-22.832 13.668-38 24.332-59.168 3-4.5 3-10.668-1.5-15.168l-41-50 57.508-56.164 48.5 41c4.5 3 10.668 3 16.668 0 4.5-3 31.832-19.668 59.168-24.332 6-1.5 9.168-6 10.668-12.168l4.5-63.668h82l6 63.668c0 6 4.5 10.668 9.168 12.168 28.832 4.5 56.168 21.168 60.668 24.332 4.5 3 10.668 3 15.168 0l48.66-41 57.668 56.168-41 50c-4.5 4.5-4.5 10.668-1.5 15.168 10.668 21.168 19.668 36.332 24.332 59.168 1.5 6 7.668 10.668 13.668 10.668zm-167 170c-69.832 69.832-186.67 69.832-258 0-71.332-71.332-71.332-188.17 0-259.5s188.17-71.332 258 0c71.332 71.332 71.332 188.17 0 259.5zm-18.168-19.832c60.668-60.668 60.668-159.33 0-220s-160.83-60.668-221.5 0-60.668 159.33 0 220c60.668 60.664 160.84 60.664 221.5 0zm-840.5-687.17 147.17-141.17v71.332c0 38-31.832 69.832-69.832 69.832zm173-159.33h376.33c38 0 69.832 30.332 69.832 68.332v440c-4.5 1.5-7.668 3-10.668 4.5l-51.668-42.5c-4.5-4.5-13.668-4.5-18.168 1.5l-74.332 74.332c-4.5 4.5-4.5 13.668 0 18.168l42.5 50c-9.168 16.668-15.168 33.332-21.168 50l-66.832 6c-6 0-12.168 6-12.168 13.668v10.668l-344.49-0.003907c-39.5 0-69.832-31.832-69.832-69.832v-440h85c53.168 0 95.5-42.5 95.5-95.5v-89.332zm688.84 189.66c0-16.668 13.668-30.332 31.832-30.332 16.668 0 31.832 13.668 31.832 30.332 0 18.168-15.168 31.832-31.832 31.832-18.168 0.003907-31.832-13.664-31.832-31.832zm-676.67 676.67c18.168 0 31.832 13.668 31.832 31.832 0 16.668-13.668 31.832-31.832 31.832-16.668 0-30.332-15.168-30.332-31.832 0-18.164 13.664-31.832 30.332-31.832zm-27.332-19.832c-30.332-38-54.668-80.332-72.832-124.33h321.67v66.832c0 7.668 6 13.668 12.168 13.668l66.832 6c6 16.668 12.168 33.332 21.168 50l-42.5 50c-4.5 4.5-4.5 13.668 0 18.168l74.332 74.332c4.5 6 13.668 6 18.168 1.5l51.668-42.5c15.168 7.668 31.832 15.168 50 19.668l3 36.332c-94 24.332-195.67 19.668-286.67-13.668-50-18.168-97.168-44-138-75.832 4.5-9.168 7.668-18.168 7.668-28.832 0-31.832-25.832-57.668-59.168-57.668-10.84 0.33203-20.004 1.832-27.504 6.332zm764.66-605.34c31.832 41 57.668 86.5 75.832 136.5 33.332 92.5 38 195.67 13.668 289.83l-38-3c-6-16.668-12.168-33.332-21.168-50l42.5-50c4.5-4.5 4.5-13.668 0-18.168l-74.332-74.332c-4.5-6-12.168-6-18.168-1.5l-51.668 42.5c-15.168-7.668-31.832-15.168-48.5-19.668l-6-65.168c0-7.668-6-13.668-13.668-13.668h-106.17c-6 0-12.168 6-12.168 13.668l-6 65.168c-4.5 1.5-9.168 1.5-13.668 3l0.007812-428.16c72.832 15.168 139.5 47 197.17 94-4.5 7.668-7.668 18.168-7.668 27.332 0 33.332 27.332 59.168 59.168 59.168 10.668 0.16797 19.668-2.832 28.832-7.5zm-537.16-150.16v78.832h-160.83v-78.832zm-27.336 429.33v83.5h-104.67v-83.5zm-179-173v83.5h-103.16v-83.5zm356.5 0v83.5h-104.67v-83.5zm-230.5-94c15.168 0 25.832 12.168 25.832 25.832 0 15.168-10.668 27.332-25.832 27.332-13.668 0-25.832-12.168-25.832-27.332 0-13.664 12.168-25.832 25.832-25.832zm13.668-24.332v-31.832h68.332c13.668 0 25.832-12.168 25.832-25.832v-82c0-15.168-12.168-25.832-25.832-25.832l-164-0.003906c-13.668 0-24.332 10.668-24.332 25.832v82c0 13.668 10.668 25.832 24.332 25.832h68.332v31.832c-16.668 4.5-31.832 18.168-36.332 36.332h-119.83c-13.668 0-24.332 10.668-24.332 24.332v30.332l-36.5 0.007813c-15.168 0-25.832 12.168-25.832 25.832v85c0 13.668 10.668 25.832 25.832 25.832h106.17c15.168 0 25.832-12.168 25.832-25.832v-85c0-13.668-10.668-25.832-25.832-25.832h-44v-28.832h116.83c4.5 19.668 19.668 34.832 38 39.5v162.33h-39.5c-15.168 0-25.832 12.168-25.832 25.832v85c0 13.668 10.668 25.832 25.832 25.832h107.83c13.668 0 24.332-12.168 24.332-25.832v-85c0-13.668-10.668-25.832-24.332-25.832h-41v-162.33c18.168-4.5 33.332-19.668 38-39.5h116.83v28.832h-44c-13.668 0-25.832 12.168-25.832 25.832v85c0 13.668 12.168 25.832 25.832 25.832h107.67c13.668 0 24.332-12.168 24.332-25.832v-85c0-13.668-10.668-25.832-24.332-25.832h-36.332v-30.332c0-13.668-12.168-24.332-25.832-24.332h-118.33c-6.1719-18.004-19.836-31.672-38.004-36.336zm734.33 559.83v-104.67c0-7.668-6-13.668-12.168-13.668h-3c25.832-98.668 21.168-204.83-13.668-301.83-19.668-53.168-48.5-101.67-82-145.67 6-9.168 9.168-21.168 9.168-33.332 0-31.832-25.832-57.668-57.668-57.668-12.168 0-24.332 3-33.332 10.668-63.668-51.668-139.5-86.5-220-103.17-12.168-38-48.5-66.832-91-66.832h-388.33s-7.668 3-9.168 3l-182.16 174.5c-3 3-4.5 6-4.5 10.668v464.33c0 51.668 41 94 91 97.168 19.668 51.668 47 100.17 82 142.67-7.668 9.168-10.668 21.168-10.668 33.332 0 31.832 25.832 57.668 57.668 57.668 12.168 0 24.332-3 33.332-9.168 44 34.832 92.5 62.168 147.17 82 95.5 34.832 200.33 39.5 297.33 15.168l1.5 1.5c0 7.668 6 13.668 12.168 13.668h106.17c7.668 0 13.668-6 13.668-13.668l6-65.168c16.668-4.5 33.332-12.168 48.5-19.668l51.668 42.5c6 4.5 13.668 4.5 18.168-1.5l74.332-74.332c4.5-4.5 4.5-13.668 0-18.168l-42.5-50c9.168-16.668 15.168-33.332 21.168-50l66.832-6c6.1641-0.66406 12.328-6.6641 12.328-14.332z"/>
</svg>
