<?xml version="1.0" encoding="UTF-8"?>
<svg width="3600pt" height="3600pt" version="1.1" viewBox="0 0 3600 3600" xmlns="http://www.w3.org/2000/svg">
 <g>
  <path d="m1800 2130c-59.672 0-116.9 23.707-159.1 65.902-42.195 42.195-65.902 99.426-65.902 159.1s23.707 116.9 65.902 159.1c42.195 42.195 99.426 65.902 159.1 65.902s116.9-23.707 159.1-65.902c42.195-42.195 65.902-99.426 65.902-159.1 0-39.496-10.395-78.297-30.145-112.5-19.746-34.203-48.152-62.609-82.355-82.355-34.203-19.75-73.004-30.145-112.5-30.145zm0 300c-19.891 0-38.969-7.9023-53.031-21.969-14.066-14.062-21.969-33.141-21.969-53.031s7.9023-38.969 21.969-53.031c14.062-14.066 33.141-21.969 53.031-21.969s38.969 7.9023 53.031 21.969c14.066 14.062 21.969 33.141 21.969 53.031s-7.9023 38.969-21.969 53.031c-14.062 14.066-33.141 21.969-53.031 21.969z"/>
  <path d="m1800 300s-600 671.7-600 1500 600 1500 600 1500 600-671.7 600-1500-600-1500-600-1500zm-450 1500c0-544.2 286.2-1024.5 450-1255.2 163.8 230.4 450 711 450 1255.2s-286.2 1024.5-450 1255.2c-164.1-230.7-450-711-450-1255.2z"/>
  <path d="m1800 2130c-59.672 0-116.9 23.707-159.1 65.902-42.195 42.195-65.902 99.426-65.902 159.1s23.707 116.9 65.902 159.1c42.195 42.195 99.426 65.902 159.1 65.902s116.9-23.707 159.1-65.902c42.195-42.195 65.902-99.426 65.902-159.1 0-39.496-10.395-78.297-30.145-112.5-19.746-34.203-48.152-62.609-82.355-82.355-34.203-19.75-73.004-30.145-112.5-30.145zm0 300c-19.891 0-38.969-7.9023-53.031-21.969-14.066-14.062-21.969-33.141-21.969-53.031s7.9023-38.969 21.969-53.031c14.062-14.066 33.141-21.969 53.031-21.969s38.969 7.9023 53.031 21.969c14.066 14.062 21.969 33.141 21.969 53.031s-7.9023 38.969-21.969 53.031c-14.062 14.066-33.141 21.969-53.031 21.969z"/>
  <path d="m1800 1575c-59.672 0-116.9 23.707-159.1 65.902-42.195 42.195-65.902 99.426-65.902 159.1s23.707 116.9 65.902 159.1c42.195 42.195 99.426 65.902 159.1 65.902s116.9-23.707 159.1-65.902c42.195-42.195 65.902-99.426 65.902-159.1 0-39.496-10.395-78.297-30.145-112.5-19.746-34.203-48.152-62.609-82.355-82.355-34.203-19.75-73.004-30.145-112.5-30.145zm0 300c-19.891 0-38.969-7.9023-53.031-21.969-14.066-14.062-21.969-33.141-21.969-53.031s7.9023-38.969 21.969-53.031c14.062-14.066 33.141-21.969 53.031-21.969s38.969 7.9023 53.031 21.969c14.066 14.062 21.969 33.141 21.969 53.031s-7.9023 38.969-21.969 53.031c-14.062 14.066-33.141 21.969-53.031 21.969z"/>
  <path d="m1800 2130c-59.672 0-116.9 23.707-159.1 65.902-42.195 42.195-65.902 99.426-65.902 159.1s23.707 116.9 65.902 159.1c42.195 42.195 99.426 65.902 159.1 65.902s116.9-23.707 159.1-65.902c42.195-42.195 65.902-99.426 65.902-159.1 0-39.496-10.395-78.297-30.145-112.5-19.746-34.203-48.152-62.609-82.355-82.355-34.203-19.75-73.004-30.145-112.5-30.145zm0 300c-19.891 0-38.969-7.9023-53.031-21.969-14.066-14.062-21.969-33.141-21.969-53.031s7.9023-38.969 21.969-53.031c14.062-14.066 33.141-21.969 53.031-21.969s38.969 7.9023 53.031 21.969c14.066 14.062 21.969 33.141 21.969 53.031s-7.9023 38.969-21.969 53.031c-14.062 14.066-33.141 21.969-53.031 21.969z"/>
  <path d="m1800 990c-59.672 0-116.9 23.707-159.1 65.902-42.195 42.195-65.902 99.426-65.902 159.1s23.707 116.9 65.902 159.1c42.195 42.195 99.426 65.902 159.1 65.902s116.9-23.707 159.1-65.902c42.195-42.195 65.902-99.426 65.902-159.1 0-39.496-10.395-78.297-30.145-112.5-19.746-34.203-48.152-62.609-82.355-82.355-34.203-19.75-73.004-30.145-112.5-30.145zm0 300c-19.891 0-38.969-7.9023-53.031-21.969-14.066-14.062-21.969-33.141-21.969-53.031s7.9023-38.969 21.969-53.031c14.062-14.066 33.141-21.969 53.031-21.969s38.969 7.9023 53.031 21.969c14.066 14.062 21.969 33.141 21.969 53.031s-7.9023 38.969-21.969 53.031c-14.062 14.066-33.141 21.969-53.031 21.969z"/>
 </g>
</svg>
